<svg width="930" height="930" viewBox="0 0 930 930" fill="none" xmlns="http://www.w3.org/2000/svg">
<path d="M438.14 168C479.341 174.627 518.038 192.092 550.264 218.604C582.491 245.115 607.087 279.72 621.532 318.87C635.977 358.021 639.751 400.308 632.467 441.398C625.183 482.487 607.103 520.901 580.08 552.7H659.53C686.713 506.572 701.011 453.991 700.93 400.45C700.93 247.27 586.3 120.87 438.14 102.34V168Z" fill="#BF913B"/>
<path d="M208.88 631.86V537.33C180.302 497.407 164.936 449.542 164.936 400.445C164.936 351.348 180.302 303.483 208.88 263.56V169C174.831 197.191 147.423 232.548 128.61 272.549C109.796 312.551 100.042 356.21 100.042 400.415C100.042 444.62 109.796 488.279 128.61 528.281C147.423 568.282 174.831 603.639 208.88 631.83V631.86Z" fill="#BF913B"/>
<path d="M393.14 75H220.98L253.88 142.3V658.33L221.32 724.89H611.49L647.14 597.7H393.14V75Z" fill="#BF913B"/>
<path d="M662.538 697.5L684.825 627.863L866.239 809.277L820.277 855.239L662.538 697.5Z" fill="#BF913B"/>
</svg>
