<?xml version="1.0" standalone="no"?>
<!DOCTYPE svg PUBLIC "-//W3C//DTD SVG 20010904//EN"
 "http://www.w3.org/TR/2001/REC-SVG-20010904/DTD/svg10.dtd">
<svg version="1.0" xmlns="http://www.w3.org/2000/svg"
 width="700.000000pt" height="700.000000pt" viewBox="0 0 700.000000 700.000000"
 preserveAspectRatio="xMidYMid meet">
<metadata>
Created by potrace 1.14, written by Peter Selinger 2001-2017
</metadata>
<g transform="translate(0.000000,700.000000) scale(0.100000,-0.100000)"
fill="#000000" stroke="none">
<path d="M1673 6433 c-5 -2 47 -114 114 -250 l122 -248 -2 -1955 -2 -1955
-117 -236 c-65 -130 -118 -238 -118 -241 0 -3 2914 -3 2932 1 3 0 10 16 13 33
4 18 30 112 57 208 27 96 71 254 98 350 62 223 89 320 96 343 5 16 -45 17
-950 17 l-956 0 0 88 c0 48 -2 933 -3 1967 l-2 1880 -637 0 c-351 0 -641 -1
-645 -2z"/>
<path d="M3299 6198 c0 -18 -1 -130 -1 -248 l0 -215 33 -7 c19 -4 48 -9 65
-12 103 -17 295 -86 419 -149 339 -173 617 -453 788 -792 88 -177 157 -415
175 -605 12 -138 5 -410 -13 -463 -2 -7 -6 -28 -9 -47 -9 -58 -53 -220 -81
-295 -57 -151 -181 -368 -281 -492 l-27 -33 300 0 300 0 51 98 c81 156 161
366 192 507 7 28 14 59 16 70 61 271 64 586 9 900 -10 55 -45 191 -69 266
-216 676 -761 1226 -1432 1448 -115 37 -255 73 -339 86 -22 4 -52 9 -67 11
-26 5 -28 3 -29 -28z"/>
<path d="M1514 5678 c-388 -354 -634 -793 -725 -1288 -41 -229 -45 -562 -9
-755 5 -27 12 -64 15 -81 37 -230 184 -589 328 -807 119 -179 297 -381 420
-477 l27 -21 0 53 c1 29 1 189 1 354 l0 302 -54 83 c-69 106 -115 197 -161
321 -36 98 -80 259 -90 333 -3 22 -10 69 -15 105 -9 71 -7 341 3 405 4 22 12
65 17 95 6 30 13 67 15 82 27 152 154 447 251 582 l35 48 -1 350 c0 193 -2
352 -5 355 -2 3 -26 -15 -52 -39z"/>
<path d="M5125 2183 c-14 -49 -29 -95 -32 -103 -3 -8 -7 -19 -8 -25 -2 -5 -21
-66 -43 -135 -22 -69 -44 -136 -47 -149 -6 -21 59 -89 581 -612 324 -324 593
-589 598 -589 13 0 336 325 336 338 0 9 -1294 1310 -1342 1350 -14 11 -19 1
-43 -75z"/>
</g>
</svg>
