<svg width="1844" height="896" viewBox="0 0 1844 896" fill="none" xmlns="http://www.w3.org/2000/svg">
<path d="M438.14 168C479.341 174.627 518.038 192.092 550.264 218.604C582.491 245.115 607.087 279.72 621.532 318.87C635.977 358.021 639.751 400.308 632.467 441.398C625.183 482.487 607.103 520.901 580.08 552.7H659.53C686.713 506.572 701.011 453.991 700.93 400.45C700.93 247.27 586.3 120.87 438.14 102.34V168Z" fill="#BF913B"/>
<path d="M208.88 631.86V537.33C180.302 497.407 164.936 449.542 164.936 400.445C164.936 351.348 180.302 303.483 208.88 263.56V169C174.831 197.191 147.423 232.548 128.61 272.549C109.796 312.551 100.042 356.21 100.042 400.415C100.042 444.62 109.796 488.279 128.61 528.281C147.423 568.282 174.831 603.639 208.88 631.83V631.86Z" fill="#BF913B"/>
<path d="M393.14 75H220.98L253.88 142.3V658.33L221.32 724.89H611.49L647.14 597.7H393.14V75Z" fill="#BF913B"/>
<path d="M958.211 675.962C930.07 676.418 902.095 671.559 875.758 661.642C852.494 652.74 831.496 638.792 814.275 620.804C797.086 602.287 783.934 580.402 775.655 556.537C766.255 529.613 761.642 501.253 762.022 472.74V178H868.227V467.143C868.227 500.235 875.951 526.315 891.399 545.382C906.847 564.45 929.208 573.984 958.482 573.984C987.833 573.984 1010.19 564.45 1025.56 545.382C1040.94 526.315 1048.66 500.235 1048.74 467.143V178H1154.98V472.74C1155.34 501.252 1150.73 529.608 1141.35 556.537C1133.07 580.402 1119.92 602.287 1102.73 620.804C1085.48 638.784 1064.48 652.73 1041.21 661.642C1014.7 671.627 986.534 676.486 958.211 675.962Z" fill="#BF913B"/>
<path d="M1216 178L1216 668H1322L1322 178H1216Z" fill="#BF913B"/>
<path d="M1615.16 379.769L1547.99 366.924C1517.78 361.089 1501.14 344.171 1501.14 319.264C1501.14 285.272 1536.02 264.947 1569.8 264.947C1581.3 264.947 1638.51 267.923 1650.28 324.864L1742.84 279.75C1729.18 239.217 1688.3 169 1569.1 169C1473.01 169 1394.81 239.491 1394.81 326.039C1394.81 399.468 1444.01 453.315 1526.37 470.038L1593.58 483.588C1626.78 490.245 1646.59 509.043 1646.59 533.989C1646.59 566.219 1619.12 585.8 1575.22 586.231C1521.82 586.779 1478.62 547.069 1471.95 508.142L1383 557.682C1403.4 623.983 1466.26 683 1574.51 683C1642.63 683 1684.69 656.722 1707.92 634.674C1722.59 620.996 1734.32 604.49 1742.42 586.153C1750.51 567.817 1754.79 548.033 1755 527.997C1754.88 453.198 1701.48 396.452 1615.16 379.769Z" fill="#BF913B"/>
<path d="M662.538 697.5L684.825 627.863L866.239 809.277L820.277 855.239L662.538 697.5Z" fill="#BF913B"/>
</svg>
